<svg xmlns="http://www.w3.org/2000/svg" width="24" height="24" viewBox="0 0 24 24" fill="none">
  
  <mask id="ghostMask" maskUnits="userSpaceOnUse" x="0" y="0" width="24" height="24">
    <rect x="0" y="0" width="24" height="24" fill="#fff"></rect>
    <path d="M7.40 18.00L7.30 17.69L7.22 17.38L7.16 17.07L7.12 16.76L7.12 16.44L7.16 16.13L7.22 15.82L7.30 15.51L7.40 15.20L7.50 14.89L7.58 14.58L7.64 14.27L7.68 13.96L7.68 13.64L7.64 13.33L7.58 13.02L7.50 12.71L7.40 12.40L7.45 11.75L7.59 11.10L7.82 10.49L8.13 9.91L8.52 9.39L8.99 8.92L9.51 8.53L10.09 8.22L10.70 7.99L11.35 7.85L12.00 7.80L12.65 7.85L13.30 7.99L13.91 8.22L14.49 8.53L15.01 8.92L15.48 9.39L15.87 9.91L16.18 10.49L16.41 11.10L16.55 11.75L16.60 12.40L16.50 12.71L16.42 13.02L16.36 13.33L16.32 13.64L16.32 13.96L16.36 14.27L16.42 14.58L16.50 14.89L16.60 15.20L16.70 15.51L16.78 15.82L16.84 16.13L16.88 16.44L16.88 16.76L16.84 17.07L16.78 17.38L16.70 17.69L16.60 18.00L16.18 18.21L15.76 18.35L15.35 18.38L14.93 18.29L14.51 18.11L14.09 17.89L13.67 17.71L13.25 17.62L12.84 17.65L12.42 17.79L12.00 18.00L11.58 18.21L11.16 18.35L10.75 18.38L10.33 18.29L9.91 18.11L9.49 17.89L9.07 17.71L8.65 17.62L8.24 17.65L7.82 17.79Z" fill="#000"></path>
  </mask>

  <g stroke="currentColor" stroke-width="1.4" stroke-linecap="round" stroke-linejoin="round" mask="url(#ghostMask)">
    
    <g opacity="0.55">
      <rect x="1.7" y="5.1" width="5.4" height="4.1" rx="0.85"></rect>
      <line x1="1.7" y1="6.6" x2="7.1" y2="6.6"></line>
    </g>
    
    <g opacity="0.55">
      <rect x="16.9" y="5.1" width="5.4" height="4.1" rx="0.85"></rect>
      <line x1="16.9" y1="6.6" x2="22.3" y2="6.6"></line>
    </g>
    
    <g opacity="0.55">
      <rect x="8.7" y="1.5" width="6.6" height="5" rx="0.95"></rect>
      <line x1="8.7" y1="3.35" x2="15.3" y2="3.35"></line>
      <circle cx="10.1" cy="2.45" r="0.34" fill="currentColor" stroke="none"></circle>
      <circle cx="11.35" cy="2.45" r="0.34" fill="currentColor" stroke="none"></circle>
    </g>
    
    <g opacity="0.7">
      <ellipse cx="12" cy="18.8" rx="9.6" ry="3.9"></ellipse>
      <circle cx="3" cy="18.3" r="1.25" fill="currentColor" stroke="none"></circle>
      <circle cx="21" cy="18.3" r="1.25" fill="currentColor" stroke="none"></circle>
      <circle cx="12" cy="22.6" r="1.25" fill="currentColor" stroke="none"></circle>
    </g>
  </g>

  
  <path d="M7.40 18.00L7.30 17.69L7.22 17.38L7.16 17.07L7.12 16.76L7.12 16.44L7.16 16.13L7.22 15.82L7.30 15.51L7.40 15.20L7.50 14.89L7.58 14.58L7.64 14.27L7.68 13.96L7.68 13.64L7.64 13.33L7.58 13.02L7.50 12.71L7.40 12.40L7.45 11.75L7.59 11.10L7.82 10.49L8.13 9.91L8.52 9.39L8.99 8.92L9.51 8.53L10.09 8.22L10.70 7.99L11.35 7.85L12.00 7.80L12.65 7.85L13.30 7.99L13.91 8.22L14.49 8.53L15.01 8.92L15.48 9.39L15.87 9.91L16.18 10.49L16.41 11.10L16.55 11.75L16.60 12.40L16.50 12.71L16.42 13.02L16.36 13.33L16.32 13.64L16.32 13.96L16.36 14.27L16.42 14.58L16.50 14.89L16.60 15.20L16.70 15.51L16.78 15.82L16.84 16.13L16.88 16.44L16.88 16.76L16.84 17.07L16.78 17.38L16.70 17.69L16.60 18.00L16.18 18.21L15.76 18.35L15.35 18.38L14.93 18.29L14.51 18.11L14.09 17.89L13.67 17.71L13.25 17.62L12.84 17.65L12.42 17.79L12.00 18.00L11.58 18.21L11.16 18.35L10.75 18.38L10.33 18.29L9.91 18.11L9.49 17.89L9.07 17.71L8.65 17.62L8.24 17.65L7.82 17.79Z" fill="none" stroke="currentColor" stroke-width="1.4" stroke-linejoin="round" stroke-linecap="round"></path>
  
  <rect x="9.55" y="10.5" width="1.45" height="2.6" rx="0.72" fill="currentColor"></rect>
  <rect x="13.0" y="10.5" width="1.45" height="2.6" rx="0.72" fill="currentColor"></rect>
  
  <path d="M11 14 a1.35 1.35 0 0 0 2 0" fill="none" stroke="currentColor" stroke-width="1.4" stroke-linecap="round"></path>
</svg>